<svg width="23" height="21" viewBox="0 0 23 21" fill="none" xmlns="http://www.w3.org/2000/svg">
    <path d="M16.9716 1C14.8716 1 12.8716 2.3 11.5716 3.8C9.97159 2.2 7.77159 0.6 5.37159 1.1C3.87159 1.3 2.47159 2.3 1.77159 3.7C-0.528413 7.8 2.77159 12 5.67159 14.8C7.07159 16.1 8.47159 17.3 9.97159 18.4C10.3716 18.7 11.0716 19.3 11.5716 19.3C12.0716 19.3 12.7716 18.7 13.1716 18.4C16.3716 16.1 19.7716 13.3 21.3716 9.6C22.8716 6.2 21.3716 1 16.9716 1" fill="#484848" fill-opacity="0.5"/>
    <path d="M16.9716 1C14.8716 1 12.8716 2.3 11.5716 3.8C9.97159 2.2 7.77159 0.6 5.37159 1.1C3.87159 1.3 2.47159 2.3 1.77159 3.7C-0.528413 7.8 2.77159 12 5.67159 14.8C7.07159 16.1 8.47159 17.3 9.97159 18.4C10.3716 18.7 11.0716 19.3 11.5716 19.3C12.0716 19.3 12.7716 18.7 13.1716 18.4C16.3716 16.1 19.7716 13.3 21.3716 9.6C22.8716 6.2 21.3716 1 16.9716 1" stroke="white" stroke-width="2" stroke-linecap="round" stroke-linejoin="round"/>
</svg>
