<svg width="1000" height="1000" viewBox="0 0 1000 1000" fill="none" xmlns="http://www.w3.org/2000/svg">
    <path d="M499.3 736.7C448.3 672.7 418.3 616.6 408.3 568.6C398.3 529.6 402.3 498.6 419.3 475.6C437.3 448.6 464.3 435.6 499.3 435.6C534.3 435.6 561.3 448.6 579.3 475.6C596.3 498.6 600.3 529.6 590.3 568.6C579.3 617.6 549.3 673.6 499.3 736.7V736.7ZM861.5 779.7C854.5 826.7 822.5 865.7 778.5 884.7C693.5 921.7 609.4 862.7 537.4 782.7C656.5 633.6 678.5 517.6 627.4 442.5C597.4 399.5 554.4 378.5 499.3 378.5C388.3 378.5 327.2 472.5 351.2 581.6C365.2 640.6 402.2 707.7 461.2 782.7C424.2 823.7 389.2 852.7 358.2 870.7C334.2 883.7 311.2 891.7 289.2 893.7C188.2 908.7 109.1 810.7 145.1 709.6C150.1 696.6 160.1 672.6 177.1 635.6L178.1 633.6C233.1 513.5 300.2 377.5 377.2 226.4L379.2 221.4L401.2 179.4C418.2 148.4 425.2 134.4 452.2 117.4C465.2 109.4 481.2 105.4 499.2 105.4C535.2 105.4 563.2 126.4 575.2 143.4C581.2 152.4 588.2 164.4 597.2 179.4L618.2 220.4L621.2 226.4C698.2 377.5 765.3 513.5 820.3 633.6L821.3 634.6L841.3 680.6L853.3 709.6C862.5 732.7 864.5 755.7 861.5 779.7ZM907.5 689.6C900.5 667.6 888.5 641.6 873.5 610.6V609.6C802.5 458.5 736.4 322.5 673.4 200.4L669.4 194.4C624.4 102.4 592.4 47.3 499.3 47.3C407.3 47.3 368.2 111.3 328.2 194.4L325.2 200.4C262.2 322.5 196.1 458.5 125.1 609.6V611.6L104.1 657.6C96.1 676.6 92.1 686.6 91.1 689.6C40.1 829.7 145.1 952.7 272.2 952.7C273.2 952.7 277.2 952.7 282.2 951.7H296.2C362.2 943.7 430.3 901.7 499.3 826.6C568.3 901.6 636.4 943.7 702.4 951.7H716.4C721.4 952.7 725.4 952.7 726.4 952.7C853.5 952.8 958.5 829.7 907.5 689.6Z" fill="black"/>
</svg>
