<svg width="844" height="906" viewBox="0 0 844 906" fill="none" xmlns="http://www.w3.org/2000/svg">
    <path d="M422.3 689.7C371.3 625.7 341.3 569.6 331.3 521.6C321.3 482.6 325.3 451.6 342.3 428.6C360.3 401.6 387.3 388.6 422.3 388.6C457.3 388.6 484.3 401.6 502.3 428.6C519.3 451.6 523.3 482.6 513.3 521.6C502.3 570.6 472.3 626.6 422.3 689.7V689.7ZM784.5 732.7C777.5 779.7 745.5 818.7 701.5 837.7C616.5 874.7 532.4 815.7 460.4 735.7C579.5 586.6 601.5 470.6 550.4 395.5C520.4 352.5 477.4 331.5 422.3 331.5C311.3 331.5 250.2 425.5 274.2 534.6C288.2 593.6 325.2 660.7 384.2 735.7C347.2 776.7 312.2 805.7 281.2 823.7C257.2 836.7 234.2 844.7 212.2 846.7C111.2 861.7 32.1 763.7 68.1 662.6C73.1 649.6 83.1 625.6 100.1 588.6L101.1 586.6C156.1 466.5 223.2 330.5 300.2 179.4L302.2 174.4L324.2 132.4C341.2 101.4 348.2 87.4001 375.2 70.4001C388.2 62.4001 404.2 58.4001 422.2 58.4001C458.2 58.4001 486.2 79.4 498.2 96.4C504.2 105.4 511.2 117.4 520.2 132.4L541.2 173.4L544.2 179.4C621.2 330.5 688.3 466.5 743.3 586.6L744.3 587.6L764.3 633.6L776.3 662.6C785.5 685.7 787.5 708.7 784.5 732.7ZM830.5 642.6C823.5 620.6 811.5 594.6 796.5 563.6V562.6C725.5 411.5 659.4 275.5 596.4 153.4L592.4 147.4C547.4 55.4 515.4 0.300049 422.3 0.300049C330.3 0.300049 291.2 64.3 251.2 147.4L248.2 153.4C185.2 275.5 119.1 411.5 48.1 562.6V564.6L27.1 610.6C19.1 629.6 15.1 639.6 14.1 642.6C-36.9 782.7 68.1 905.7 195.2 905.7C196.2 905.7 200.2 905.7 205.2 904.7H219.2C285.2 896.7 353.3 854.7 422.3 779.6C491.3 854.6 559.4 896.7 625.4 904.7H639.4C644.4 905.7 648.4 905.7 649.4 905.7C776.5 905.8 881.5 782.7 830.5 642.6Z" fill="#FF5A5F"/>
</svg>
